<mxfile host="app.diagrams.net" modified="2024-10-01T14:47:19.152Z" agent="Mozilla/5.0 (Windows NT 10.0; Win64; x64) AppleWebKit/537.36 (KHTML, like Gecko) Chrome/129.0.0.0 Safari/537.36" etag="rX5D5JKW1zHNqg_XYSp1" version="24.3.1" type="device">
  <diagram id="C5RBs43oDa-KdzZeNtuy" name="Page-1">
    <mxGraphModel dx="2314" dy="918" grid="1" gridSize="10" guides="1" tooltips="1" connect="1" arrows="1" fold="1" page="1" pageScale="1" pageWidth="827" pageHeight="1169" math="0" shadow="0">
      <root>
        <mxCell id="WIyWlLk6GJQsqaUBKTNV-0" />
        <mxCell id="WIyWlLk6GJQsqaUBKTNV-1" parent="WIyWlLk6GJQsqaUBKTNV-0" />
        <mxCell id="WIyWlLk6GJQsqaUBKTNV-2" value="" style="rounded=0;html=1;jettySize=auto;orthogonalLoop=1;fontSize=11;endArrow=block;endFill=0;endSize=8;strokeWidth=1;shadow=0;labelBackgroundColor=none;edgeStyle=orthogonalEdgeStyle;" parent="WIyWlLk6GJQsqaUBKTNV-1" source="WIyWlLk6GJQsqaUBKTNV-3" target="jsReNOQBXWy_V4355PHV-0" edge="1">
          <mxGeometry relative="1" as="geometry">
            <mxPoint x="414" y="160" as="targetPoint" />
          </mxGeometry>
        </mxCell>
        <mxCell id="WIyWlLk6GJQsqaUBKTNV-3" value="&lt;div&gt;Title Screen&lt;/div&gt;" style="rounded=1;whiteSpace=wrap;html=1;fontSize=12;glass=0;strokeWidth=1;shadow=0;" parent="WIyWlLk6GJQsqaUBKTNV-1" vertex="1">
          <mxGeometry x="354" y="70" width="120" height="40" as="geometry" />
        </mxCell>
        <mxCell id="jsReNOQBXWy_V4355PHV-3" value="" style="edgeStyle=orthogonalEdgeStyle;rounded=0;orthogonalLoop=1;jettySize=auto;html=1;" edge="1" parent="WIyWlLk6GJQsqaUBKTNV-1" source="jsReNOQBXWy_V4355PHV-0" target="jsReNOQBXWy_V4355PHV-2">
          <mxGeometry relative="1" as="geometry" />
        </mxCell>
        <mxCell id="jsReNOQBXWy_V4355PHV-5" value="" style="edgeStyle=orthogonalEdgeStyle;rounded=0;orthogonalLoop=1;jettySize=auto;html=1;" edge="1" parent="WIyWlLk6GJQsqaUBKTNV-1" source="jsReNOQBXWy_V4355PHV-0" target="jsReNOQBXWy_V4355PHV-4">
          <mxGeometry relative="1" as="geometry" />
        </mxCell>
        <mxCell id="jsReNOQBXWy_V4355PHV-7" value="" style="edgeStyle=orthogonalEdgeStyle;rounded=0;orthogonalLoop=1;jettySize=auto;html=1;" edge="1" parent="WIyWlLk6GJQsqaUBKTNV-1" source="jsReNOQBXWy_V4355PHV-0" target="jsReNOQBXWy_V4355PHV-6">
          <mxGeometry relative="1" as="geometry" />
        </mxCell>
        <mxCell id="jsReNOQBXWy_V4355PHV-0" value="Game Menu" style="rounded=1;whiteSpace=wrap;html=1;" vertex="1" parent="WIyWlLk6GJQsqaUBKTNV-1">
          <mxGeometry x="354" y="140" width="120" height="40" as="geometry" />
        </mxCell>
        <mxCell id="jsReNOQBXWy_V4355PHV-9" value="" style="edgeStyle=orthogonalEdgeStyle;rounded=0;orthogonalLoop=1;jettySize=auto;html=1;" edge="1" parent="WIyWlLk6GJQsqaUBKTNV-1" source="jsReNOQBXWy_V4355PHV-2" target="jsReNOQBXWy_V4355PHV-8">
          <mxGeometry relative="1" as="geometry" />
        </mxCell>
        <mxCell id="jsReNOQBXWy_V4355PHV-11" value="" style="edgeStyle=orthogonalEdgeStyle;rounded=0;orthogonalLoop=1;jettySize=auto;html=1;" edge="1" parent="WIyWlLk6GJQsqaUBKTNV-1" source="jsReNOQBXWy_V4355PHV-2" target="jsReNOQBXWy_V4355PHV-10">
          <mxGeometry relative="1" as="geometry" />
        </mxCell>
        <mxCell id="jsReNOQBXWy_V4355PHV-13" value="" style="edgeStyle=orthogonalEdgeStyle;rounded=0;orthogonalLoop=1;jettySize=auto;html=1;" edge="1" parent="WIyWlLk6GJQsqaUBKTNV-1" source="jsReNOQBXWy_V4355PHV-2" target="jsReNOQBXWy_V4355PHV-12">
          <mxGeometry relative="1" as="geometry" />
        </mxCell>
        <mxCell id="jsReNOQBXWy_V4355PHV-2" value="Enter" style="whiteSpace=wrap;html=1;rounded=1;" vertex="1" parent="WIyWlLk6GJQsqaUBKTNV-1">
          <mxGeometry x="10" y="220" width="120" height="60" as="geometry" />
        </mxCell>
        <mxCell id="jsReNOQBXWy_V4355PHV-4" value="Settings&lt;div&gt;&lt;br&gt;&lt;/div&gt;" style="whiteSpace=wrap;html=1;rounded=1;" vertex="1" parent="WIyWlLk6GJQsqaUBKTNV-1">
          <mxGeometry x="354" y="220" width="120" height="60" as="geometry" />
        </mxCell>
        <mxCell id="jsReNOQBXWy_V4355PHV-51" value="" style="edgeStyle=orthogonalEdgeStyle;rounded=0;orthogonalLoop=1;jettySize=auto;html=1;" edge="1" parent="WIyWlLk6GJQsqaUBKTNV-1" source="jsReNOQBXWy_V4355PHV-6" target="jsReNOQBXWy_V4355PHV-50">
          <mxGeometry relative="1" as="geometry" />
        </mxCell>
        <mxCell id="jsReNOQBXWy_V4355PHV-6" value="Cosmetic Shop" style="whiteSpace=wrap;html=1;rounded=1;" vertex="1" parent="WIyWlLk6GJQsqaUBKTNV-1">
          <mxGeometry x="670" y="220" width="120" height="60" as="geometry" />
        </mxCell>
        <mxCell id="jsReNOQBXWy_V4355PHV-16" value="" style="edgeStyle=orthogonalEdgeStyle;rounded=0;orthogonalLoop=1;jettySize=auto;html=1;" edge="1" parent="WIyWlLk6GJQsqaUBKTNV-1" source="jsReNOQBXWy_V4355PHV-8" target="jsReNOQBXWy_V4355PHV-15">
          <mxGeometry relative="1" as="geometry" />
        </mxCell>
        <mxCell id="jsReNOQBXWy_V4355PHV-8" value="Manage cards" style="rounded=1;whiteSpace=wrap;html=1;" vertex="1" parent="WIyWlLk6GJQsqaUBKTNV-1">
          <mxGeometry x="170" y="340" width="120" height="60" as="geometry" />
        </mxCell>
        <mxCell id="jsReNOQBXWy_V4355PHV-18" value="" style="edgeStyle=orthogonalEdgeStyle;rounded=0;orthogonalLoop=1;jettySize=auto;html=1;" edge="1" parent="WIyWlLk6GJQsqaUBKTNV-1" source="jsReNOQBXWy_V4355PHV-10" target="jsReNOQBXWy_V4355PHV-17">
          <mxGeometry relative="1" as="geometry" />
        </mxCell>
        <mxCell id="jsReNOQBXWy_V4355PHV-10" value="Start" style="whiteSpace=wrap;html=1;rounded=1;" vertex="1" parent="WIyWlLk6GJQsqaUBKTNV-1">
          <mxGeometry x="-300" y="310" width="120" height="60" as="geometry" />
        </mxCell>
        <mxCell id="jsReNOQBXWy_V4355PHV-12" value="Settings" style="whiteSpace=wrap;html=1;rounded=1;" vertex="1" parent="WIyWlLk6GJQsqaUBKTNV-1">
          <mxGeometry x="10" y="340" width="120" height="60" as="geometry" />
        </mxCell>
        <mxCell id="jsReNOQBXWy_V4355PHV-15" value="Deck Builder" style="whiteSpace=wrap;html=1;rounded=1;" vertex="1" parent="WIyWlLk6GJQsqaUBKTNV-1">
          <mxGeometry x="170" y="480" width="120" height="60" as="geometry" />
        </mxCell>
        <mxCell id="jsReNOQBXWy_V4355PHV-22" value="" style="edgeStyle=orthogonalEdgeStyle;rounded=0;orthogonalLoop=1;jettySize=auto;html=1;" edge="1" parent="WIyWlLk6GJQsqaUBKTNV-1" source="jsReNOQBXWy_V4355PHV-17" target="jsReNOQBXWy_V4355PHV-21">
          <mxGeometry relative="1" as="geometry" />
        </mxCell>
        <mxCell id="jsReNOQBXWy_V4355PHV-17" value="Enter a dungeon room" style="whiteSpace=wrap;html=1;rounded=1;" vertex="1" parent="WIyWlLk6GJQsqaUBKTNV-1">
          <mxGeometry x="-300" y="400" width="120" height="60" as="geometry" />
        </mxCell>
        <mxCell id="jsReNOQBXWy_V4355PHV-24" value="" style="edgeStyle=orthogonalEdgeStyle;rounded=0;orthogonalLoop=1;jettySize=auto;html=1;" edge="1" parent="WIyWlLk6GJQsqaUBKTNV-1" source="jsReNOQBXWy_V4355PHV-21" target="jsReNOQBXWy_V4355PHV-23">
          <mxGeometry relative="1" as="geometry" />
        </mxCell>
        <mxCell id="jsReNOQBXWy_V4355PHV-21" value="Map functionality" style="whiteSpace=wrap;html=1;rounded=1;" vertex="1" parent="WIyWlLk6GJQsqaUBKTNV-1">
          <mxGeometry x="-300" y="500" width="120" height="60" as="geometry" />
        </mxCell>
        <mxCell id="jsReNOQBXWy_V4355PHV-26" value="" style="edgeStyle=orthogonalEdgeStyle;rounded=0;orthogonalLoop=1;jettySize=auto;html=1;" edge="1" parent="WIyWlLk6GJQsqaUBKTNV-1" source="jsReNOQBXWy_V4355PHV-23" target="jsReNOQBXWy_V4355PHV-25">
          <mxGeometry relative="1" as="geometry" />
        </mxCell>
        <mxCell id="jsReNOQBXWy_V4355PHV-23" value="Room selection" style="whiteSpace=wrap;html=1;rounded=1;" vertex="1" parent="WIyWlLk6GJQsqaUBKTNV-1">
          <mxGeometry x="-300" y="590" width="120" height="60" as="geometry" />
        </mxCell>
        <mxCell id="jsReNOQBXWy_V4355PHV-28" value="" style="edgeStyle=orthogonalEdgeStyle;rounded=0;orthogonalLoop=1;jettySize=auto;html=1;" edge="1" parent="WIyWlLk6GJQsqaUBKTNV-1" source="jsReNOQBXWy_V4355PHV-25" target="jsReNOQBXWy_V4355PHV-27">
          <mxGeometry relative="1" as="geometry" />
        </mxCell>
        <mxCell id="jsReNOQBXWy_V4355PHV-25" value="Room objective" style="whiteSpace=wrap;html=1;rounded=1;" vertex="1" parent="WIyWlLk6GJQsqaUBKTNV-1">
          <mxGeometry x="-300" y="680" width="120" height="60" as="geometry" />
        </mxCell>
        <mxCell id="jsReNOQBXWy_V4355PHV-32" value="" style="edgeStyle=orthogonalEdgeStyle;rounded=0;orthogonalLoop=1;jettySize=auto;html=1;" edge="1" parent="WIyWlLk6GJQsqaUBKTNV-1" source="jsReNOQBXWy_V4355PHV-27" target="jsReNOQBXWy_V4355PHV-31">
          <mxGeometry relative="1" as="geometry" />
        </mxCell>
        <mxCell id="jsReNOQBXWy_V4355PHV-45" value="No" style="edgeLabel;html=1;align=center;verticalAlign=middle;resizable=0;points=[];" vertex="1" connectable="0" parent="jsReNOQBXWy_V4355PHV-32">
          <mxGeometry x="-0.0145" y="-2" relative="1" as="geometry">
            <mxPoint as="offset" />
          </mxGeometry>
        </mxCell>
        <mxCell id="jsReNOQBXWy_V4355PHV-39" value="" style="edgeStyle=orthogonalEdgeStyle;rounded=0;orthogonalLoop=1;jettySize=auto;html=1;" edge="1" parent="WIyWlLk6GJQsqaUBKTNV-1" source="jsReNOQBXWy_V4355PHV-27" target="jsReNOQBXWy_V4355PHV-38">
          <mxGeometry relative="1" as="geometry" />
        </mxCell>
        <mxCell id="jsReNOQBXWy_V4355PHV-44" value="Yes" style="edgeLabel;html=1;align=center;verticalAlign=middle;resizable=0;points=[];" vertex="1" connectable="0" parent="jsReNOQBXWy_V4355PHV-39">
          <mxGeometry x="-0.2782" y="2" relative="1" as="geometry">
            <mxPoint as="offset" />
          </mxGeometry>
        </mxCell>
        <mxCell id="jsReNOQBXWy_V4355PHV-27" value="Completed?" style="rhombus;whiteSpace=wrap;html=1;rounded=1;" vertex="1" parent="WIyWlLk6GJQsqaUBKTNV-1">
          <mxGeometry x="-280" y="790" width="80" height="80" as="geometry" />
        </mxCell>
        <mxCell id="jsReNOQBXWy_V4355PHV-29" value="Map reappears" style="whiteSpace=wrap;html=1;rounded=1;" vertex="1" parent="WIyWlLk6GJQsqaUBKTNV-1">
          <mxGeometry x="-300" y="1070" width="120" height="60" as="geometry" />
        </mxCell>
        <mxCell id="jsReNOQBXWy_V4355PHV-31" value="Shop/Title" style="whiteSpace=wrap;html=1;rounded=1;" vertex="1" parent="WIyWlLk6GJQsqaUBKTNV-1">
          <mxGeometry x="-100" y="800" width="120" height="60" as="geometry" />
        </mxCell>
        <mxCell id="jsReNOQBXWy_V4355PHV-35" value="" style="endArrow=classic;html=1;rounded=0;" edge="1" parent="WIyWlLk6GJQsqaUBKTNV-1">
          <mxGeometry width="50" height="50" relative="1" as="geometry">
            <mxPoint x="-390" y="950" as="sourcePoint" />
            <mxPoint x="-390" y="620" as="targetPoint" />
          </mxGeometry>
        </mxCell>
        <mxCell id="jsReNOQBXWy_V4355PHV-36" value="" style="endArrow=classic;html=1;rounded=0;exitX=0;exitY=0.5;exitDx=0;exitDy=0;" edge="1" parent="WIyWlLk6GJQsqaUBKTNV-1" source="jsReNOQBXWy_V4355PHV-29">
          <mxGeometry width="50" height="50" relative="1" as="geometry">
            <mxPoint x="-20" y="720" as="sourcePoint" />
            <mxPoint x="-390" y="950" as="targetPoint" />
          </mxGeometry>
        </mxCell>
        <mxCell id="jsReNOQBXWy_V4355PHV-37" value="" style="endArrow=classic;html=1;rounded=0;entryX=0;entryY=0.5;entryDx=0;entryDy=0;" edge="1" parent="WIyWlLk6GJQsqaUBKTNV-1" target="jsReNOQBXWy_V4355PHV-23">
          <mxGeometry width="50" height="50" relative="1" as="geometry">
            <mxPoint x="-390" y="620" as="sourcePoint" />
            <mxPoint x="30" y="670" as="targetPoint" />
          </mxGeometry>
        </mxCell>
        <mxCell id="jsReNOQBXWy_V4355PHV-47" value="" style="edgeStyle=orthogonalEdgeStyle;rounded=0;orthogonalLoop=1;jettySize=auto;html=1;" edge="1" parent="WIyWlLk6GJQsqaUBKTNV-1" source="jsReNOQBXWy_V4355PHV-38">
          <mxGeometry relative="1" as="geometry">
            <mxPoint x="-40" y="970" as="targetPoint" />
          </mxGeometry>
        </mxCell>
        <mxCell id="jsReNOQBXWy_V4355PHV-49" value="Yes" style="edgeLabel;html=1;align=center;verticalAlign=middle;resizable=0;points=[];" vertex="1" connectable="0" parent="jsReNOQBXWy_V4355PHV-47">
          <mxGeometry x="-0.1277" y="-4" relative="1" as="geometry">
            <mxPoint as="offset" />
          </mxGeometry>
        </mxCell>
        <mxCell id="jsReNOQBXWy_V4355PHV-38" value="Boss Room?" style="rhombus;whiteSpace=wrap;html=1;rounded=1;" vertex="1" parent="WIyWlLk6GJQsqaUBKTNV-1">
          <mxGeometry x="-280" y="930" width="80" height="80" as="geometry" />
        </mxCell>
        <mxCell id="jsReNOQBXWy_V4355PHV-40" value="" style="endArrow=classic;html=1;rounded=0;exitX=0.5;exitY=1;exitDx=0;exitDy=0;entryX=0.5;entryY=0;entryDx=0;entryDy=0;" edge="1" parent="WIyWlLk6GJQsqaUBKTNV-1" source="jsReNOQBXWy_V4355PHV-38" target="jsReNOQBXWy_V4355PHV-29">
          <mxGeometry width="50" height="50" relative="1" as="geometry">
            <mxPoint x="-10" y="940" as="sourcePoint" />
            <mxPoint x="40" y="890" as="targetPoint" />
          </mxGeometry>
        </mxCell>
        <mxCell id="jsReNOQBXWy_V4355PHV-43" value="No" style="edgeLabel;html=1;align=center;verticalAlign=middle;resizable=0;points=[];" vertex="1" connectable="0" parent="jsReNOQBXWy_V4355PHV-40">
          <mxGeometry x="-0.3471" y="2" relative="1" as="geometry">
            <mxPoint as="offset" />
          </mxGeometry>
        </mxCell>
        <mxCell id="jsReNOQBXWy_V4355PHV-48" value="" style="endArrow=classic;html=1;rounded=0;entryX=0.5;entryY=1;entryDx=0;entryDy=0;" edge="1" parent="WIyWlLk6GJQsqaUBKTNV-1" target="jsReNOQBXWy_V4355PHV-31">
          <mxGeometry width="50" height="50" relative="1" as="geometry">
            <mxPoint x="-40" y="970" as="sourcePoint" />
            <mxPoint x="-20" y="830" as="targetPoint" />
          </mxGeometry>
        </mxCell>
        <mxCell id="jsReNOQBXWy_V4355PHV-50" value="Settings" style="whiteSpace=wrap;html=1;rounded=1;" vertex="1" parent="WIyWlLk6GJQsqaUBKTNV-1">
          <mxGeometry x="670" y="320" width="120" height="60" as="geometry" />
        </mxCell>
      </root>
    </mxGraphModel>
  </diagram>
</mxfile>
